<svg width="72" height="18" viewBox="0 0 72 18" fill="none" xmlns="http://www.w3.org/2000/svg">
<path d="M8.37988 11H3.61988L2.93988 14H0.179883L3.51988 -9.53674e-07H8.47988L11.8199 14H9.05988L8.37988 11ZM4.17988 8.48H7.79988L6.17988 1.32H5.81988L4.17988 8.48ZM20.806 12.56H20.446C20.3393 12.7867 20.206 13.0067 20.046 13.22C19.8993 13.42 19.6993 13.6 19.446 13.76C19.206 13.92 18.9126 14.0467 18.566 14.14C18.2326 14.2333 17.826 14.28 17.346 14.28C16.7326 14.28 16.1593 14.1733 15.626 13.96C15.106 13.7333 14.646 13.4067 14.246 12.98C13.8593 12.54 13.5526 12.0067 13.326 11.38C13.1126 10.7533 13.006 10.0333 13.006 9.22V8.86C13.006 8.06 13.1193 7.34667 13.346 6.72C13.586 6.09333 13.906 5.56667 14.306 5.14C14.7193 4.7 15.1926 4.36667 15.726 4.14C16.2726 3.91333 16.846 3.8 17.446 3.8C18.246 3.8 18.8793 3.95333 19.346 4.26C19.8126 4.55333 20.1793 4.97333 20.446 5.52H20.806V-9.53674e-07H23.326V14H20.806V12.56ZM18.166 11.88C18.9526 11.88 19.586 11.6333 20.066 11.14C20.5593 10.6333 20.806 9.97333 20.806 9.16V8.92C20.806 8.10667 20.5593 7.45333 20.066 6.96C19.586 6.45333 18.9526 6.2 18.166 6.2C17.3793 6.2 16.7393 6.44667 16.246 6.94C15.766 7.42 15.526 8.08 15.526 8.92V9.16C15.526 10 15.766 10.6667 16.246 11.16C16.7393 11.64 17.3793 11.88 18.166 11.88ZM24.8121 -9.53674e-07H29.4521L30.2521 10.52V12.56H30.7321V10.52L31.5321 -9.53674e-07H36.1721V14H33.7721V4.64L34.0121 1.44H33.5321L32.4921 14H28.5321L27.4521 1.44H26.9721L27.2121 4.64V14H24.8121V-9.53674e-07ZM44.5982 12.56C44.3315 13.1867 43.9582 13.6333 43.4782 13.9C42.9982 14.1533 42.4382 14.28 41.7982 14.28C41.1982 14.28 40.6315 14.1667 40.0982 13.94C39.5782 13.7133 39.1182 13.38 38.7182 12.94C38.3182 12.5 37.9982 11.9667 37.7582 11.34C37.5315 10.7133 37.4182 10 37.4182 9.2V8.88C37.4182 8.09333 37.5315 7.38667 37.7582 6.76C37.9848 6.13333 38.2915 5.6 38.6782 5.16C39.0648 4.72 39.5115 4.38667 40.0182 4.16C40.5382 3.92 41.0915 3.8 41.6782 3.8C42.3848 3.8 42.9515 3.92 43.3782 4.16C43.8182 4.4 44.1648 4.77333 44.4182 5.28H44.7782V4.08H47.2982V11C47.2982 11.4 47.4782 11.6 47.8382 11.6H48.2182V14H46.4982C46.0448 14 45.6715 13.8667 45.3782 13.6C45.0982 13.3333 44.9582 12.9867 44.9582 12.56H44.5982ZM42.3582 11.88C43.0915 11.88 43.6782 11.64 44.1182 11.16C44.5582 10.6667 44.7782 10 44.7782 9.16V8.92C44.7782 8.08 44.5582 7.42 44.1182 6.94C43.6782 6.44667 43.0915 6.2 42.3582 6.2C41.6248 6.2 41.0382 6.44667 40.5982 6.94C40.1582 7.42 39.9382 8.08 39.9382 8.92V9.16C39.9382 10 40.1582 10.6667 40.5982 11.16C41.0382 11.64 41.6248 11.88 42.3582 11.88ZM52.4243 18H49.9043V4.08H52.4243V5.52H52.7843C53.0509 4.97333 53.4376 4.55333 53.9443 4.26C54.4509 3.95333 55.0976 3.8 55.8843 3.8C56.4709 3.8 57.0243 3.91333 57.5443 4.14C58.0776 4.36667 58.5376 4.7 58.9243 5.14C59.3243 5.56667 59.6376 6.09333 59.8643 6.72C60.1043 7.34667 60.2243 8.06 60.2243 8.86V9.22C60.2243 10.0333 60.1109 10.7533 59.8843 11.38C59.6576 12.0067 59.3509 12.54 58.9643 12.98C58.5776 13.4067 58.1176 13.7333 57.5843 13.96C57.0643 14.1733 56.4976 14.28 55.8843 14.28C55.4309 14.28 55.0376 14.2333 54.7043 14.14C54.3709 14.0467 54.0776 13.92 53.8243 13.76C53.5843 13.6 53.3776 13.42 53.2043 13.22C53.0443 13.0067 52.9043 12.7867 52.7843 12.56H52.4243V18ZM55.0643 11.88C55.8509 11.88 56.4843 11.64 56.9643 11.16C57.4576 10.6667 57.7043 10 57.7043 9.16V8.92C57.7043 8.08 57.4576 7.42 56.9643 6.94C56.4843 6.44667 55.8509 6.2 55.0643 6.2C54.2776 6.2 53.6376 6.45333 53.1443 6.96C52.6643 7.45333 52.4243 8.10667 52.4243 8.92V9.16C52.4243 9.97333 52.6643 10.6333 53.1443 11.14C53.6376 11.6333 54.2776 11.88 55.0643 11.88ZM65.8304 6.88C65.8304 7.2 65.997 7.43333 66.3304 7.58C66.6637 7.71333 67.2704 7.82667 68.1504 7.92C69.1637 8.02667 69.9904 8.33333 70.6304 8.84C71.2704 9.33333 71.5904 10.0267 71.5904 10.92V11.04C71.5904 12.0267 71.2304 12.8133 70.5104 13.4C69.7904 13.9867 68.777 14.28 67.4704 14.28C66.697 14.28 66.037 14.18 65.4904 13.98C64.9437 13.78 64.4904 13.5333 64.1304 13.24C63.7704 12.9333 63.4904 12.6 63.2904 12.24C63.1037 11.8667 62.977 11.5067 62.9104 11.16L65.2304 10.4C65.337 10.8267 65.557 11.2 65.8904 11.52C66.237 11.84 66.7637 12 67.4704 12C68.097 12 68.5237 11.9067 68.7504 11.72C68.9904 11.52 69.1104 11.3067 69.1104 11.08C69.1104 10.9467 69.077 10.8267 69.0104 10.72C68.957 10.6 68.8504 10.4933 68.6904 10.4C68.5304 10.2933 68.3104 10.2067 68.0304 10.14C67.7637 10.0733 67.4237 10.02 67.0104 9.98C65.8904 9.88667 64.997 9.6 64.3304 9.12C63.677 8.62667 63.3504 7.90667 63.3504 6.96V6.84C63.3504 6.34667 63.457 5.91333 63.6704 5.54C63.8837 5.16667 64.1637 4.85333 64.5104 4.6C64.857 4.33333 65.257 4.13333 65.7104 4C66.1637 3.86667 66.6304 3.8 67.1104 3.8C67.737 3.8 68.277 3.88 68.7304 4.04C69.197 4.18667 69.5904 4.38667 69.9104 4.64C70.2304 4.88 70.4904 5.15333 70.6904 5.46C70.8904 5.75333 71.0437 6.04 71.1504 6.32L68.8704 7.24C68.7504 6.88 68.5437 6.6 68.2504 6.4C67.957 6.18667 67.577 6.08 67.1104 6.08C66.6837 6.08 66.3637 6.16 66.1504 6.32C65.937 6.46667 65.8304 6.65333 65.8304 6.88Z" fill="black" fill-opacity="0.6"/>
</svg>
