<svg class="svg-icon" style="width: 2.529296875em; height: 1em;vertical-align: middle;fill: currentColor;overflow: hidden;" viewBox="0 0 2590 1024" version="1.1" xmlns="http://www.w3.org/2000/svg"><path d="M1357.031272 335.166088c0 25.61779-20.636553 46.254343-46.254344 46.254343s-46.254343-20.636553-46.254343-46.254343 19.924948-46.254343 46.254343-46.254344c26.329395 0.711605 46.254343 21.348158 46.254344 46.254344z m-190.710216 93.220291v11.385685s-22.059764-28.464211-69.025712-28.464211c-77.564976 0-138.051425 59.063238-138.051425 140.897845 0 81.123002 59.774844 140.897846 138.051425 140.897846 47.677554 0 69.025712-29.175817 69.025712-29.175816V676.025017c0 5.692842 4.269632 9.962474 9.962474 9.962474h57.640028V418.423905h-57.640028c-5.692842 0-9.962474 4.981237-9.962474 9.962474z m0 171.496873c-10.674079 15.655316-32.022238 29.175817-57.640028 29.175817-45.542738 0-80.411397-28.464211-80.411396-76.853371 0-48.389159 34.868659-76.85337 80.411396-76.85337 24.906185 0 47.677554 14.232106 57.640028 29.175817z m110.298819-181.459347h68.314107v267.563586h-68.314107z m1020.441974-7.116052c-46.965949 0-69.025712 28.464211-69.025713 28.464211V289.62335h-68.314107v396.364141h57.640028c5.692842 0 9.962474-4.981237 9.962474-9.962474v-12.097289s22.059764 29.175817 69.025712 29.175816c77.564976 0 138.051425-59.774844 138.051425-140.897846s-60.486449-140.897846-137.339819-140.897845z m-11.385685 217.039611c-26.329395 0-46.965949-13.5205-57.640028-29.175817V503.816539c10.674079-14.232106 33.445448-29.175817 57.640028-29.175816 45.542738 0 80.411397 28.464211 80.411397 76.85337 0 48.389159-34.868659 76.85337-80.411397 76.853371z m-161.534399-101.04795v159.399583h-68.314107V535.127172c0-44.119527-14.232106-61.909659-52.658791-61.90966-20.636553 0-41.984712 10.674079-55.505212 26.329396v186.440583h-68.314107V418.423905h54.082002c5.692842 0 9.962474 4.981237 9.962474 9.962474v11.385685c19.924948-20.636553 46.254343-28.464211 72.583738-28.464211 29.887422 0 54.793607 8.539263 74.718555 25.61779 24.19458 19.924948 33.445448 45.542738 33.445448 90.373871z m-410.596247-115.991661c-46.965949 0-69.025712 28.464211-69.025713 28.464211V289.62335h-68.314107v396.364141h57.640028c5.692842 0 9.962474-4.981237 9.962474-9.962474v-12.097289s22.059764 29.175817 69.025712 29.175816c77.564976 0 138.051425-59.774844 138.051425-140.897846 0.711605-81.123002-59.774844-140.897846-137.339819-140.897845z m-11.385685 217.039611c-26.329395 0-46.965949-13.5205-57.640028-29.175817V503.816539c10.674079-14.232106 33.445448-29.175817 57.640028-29.175816 45.542738 0 80.411397 28.464211 80.411397 76.85337 0 48.389159-34.868659 76.85337-80.411397 76.853371z m-185.017373-217.039611c20.636553 0 31.310632 3.558026 31.310632 3.558026v63.33287s-56.928423-19.213343-92.508686 21.348159v187.152189H1387.630299V418.423905h57.640028c5.692842 0 9.962474 4.981237 9.962474 9.962474v11.385685c12.808895-14.943711 40.561501-28.464211 61.909659-28.464211zM807.671994 661.792912c-3.558026-8.539263-7.116053-17.790132-10.674079-25.61779-5.692842-12.808895-11.385685-24.906185-16.366921-36.29187l-0.711606-0.711605C730.818624 492.430855 678.230994 384.266852 622.725782 277.52606l-2.134816-4.269632c-5.692842-10.674079-11.385685-22.059764-17.078527-33.445448-7.116053-12.808895-14.232106-26.329395-25.61779-39.138291-22.771369-28.464211-55.505212-44.119527-90.373871-44.119527-35.580264 0-67.602502 15.655316-91.085476 42.696317-10.674079 12.808895-18.501737 26.329395-25.61779 39.13829-5.692842 11.385685-11.385685 22.771369-17.078527 33.445449l-2.134815 4.269631c-54.793607 106.740792-108.164003 214.904795-157.264768 321.645587l-0.711605 1.423211c-4.981237 11.385685-10.674079 23.482974-16.366921 36.291869-3.558026 7.827658-7.116053 16.366921-10.67408 25.61779-9.250869 26.329395-12.09729 51.23558-8.539263 76.853371 7.827658 53.370396 43.407922 98.201529 92.508687 118.126477 18.501737 7.827658 37.71508 11.385685 57.640027 11.385684 5.692842 0 12.808895-0.711605 18.501738-1.42321 23.482974-2.846421 47.677554-10.674079 71.160528-24.19458 29.175817-16.366921 56.928423-39.849896 88.239055-74.006949 31.310632 34.157054 59.774844 57.640028 88.239055 74.006949 23.482974 13.5205 47.677554 21.348158 71.160528 24.19458 5.692842 0.711605 12.808895 1.423211 18.501737 1.42321 19.924948 0 39.849896-3.558026 57.568867-11.385684 49.81237-19.924948 84.681028-65.467686 92.508687-118.126477 5.692842-24.906185 2.846421-49.81237-6.404448-76.141765z m-320.862821 37.003474c-38.426685-48.389159-63.33287-93.931897-71.872133-132.358582-3.558026-16.366921-4.269632-30.599027-2.134816-43.407922 1.423211-11.385685 5.692842-21.348158 11.385684-29.887422 13.5205-19.213343 36.291869-31.310632 62.621265-31.310632 26.329395 0 49.81237 11.385685 62.621265 31.310632 5.692842 8.539263 9.962474 18.501737 11.385684 29.887422 2.134816 12.808895 1.423211 27.752606-2.134816 43.407922-8.539263 37.71508-33.445448 83.257818-71.872133 132.358582z m283.859347 33.445449c-4.981237 37.003475-29.887422 69.025712-64.68492 83.257818-17.078527 7.116053-35.580264 9.250869-54.082002 7.116052-17.790132-2.134816-35.580264-7.827658-54.082001-18.501737-25.61779-14.232106-51.23558-36.291869-81.123002-69.025712 46.965949-57.640028 75.43016-110.298819 86.104239-157.264767 4.981237-22.059764 5.692842-41.984712 3.558026-60.486449-2.846421-17.790132-9.250869-34.157054-19.213342-48.38916-22.059764-32.022238-59.063238-50.523975-100.336345-50.523975-41.273106 0-78.276581 19.213343-100.336345 50.523975-9.962474 14.232106-16.366921 30.599027-19.213342 48.38916-2.846421 18.501737-2.134816 39.13829 3.558026 60.486449 10.674079 46.965949 39.849896 100.336345 86.104239 157.976372-29.175817 32.733843-55.505212 54.793607-81.123002 69.025712-18.501737 10.674079-36.291869 16.366921-54.082001 18.501738-19.213343 2.134816-37.71508-0.711605-54.082002-7.116053-34.868659-14.232106-59.774844-46.254343-64.75608-83.257818-2.134816-17.790132-0.711605-35.580264 6.404447-55.505212 2.134816-7.116053 5.692842-14.232106 9.250869-22.771369 4.981237-11.385685 10.674079-23.482974 16.366921-35.580264l0.711606-1.423211c49.100764-106.029187 101.759555-214.19319 156.553162-319.510771l2.134815-4.269632c5.692842-10.674079 11.385685-22.059764 17.078527-32.733843 5.692842-11.385685 12.09729-22.059764 19.924948-31.310632 14.943711-17.078527 34.868659-26.329395 56.928423-26.329396 22.059764 0 41.984712 9.250869 56.928422 26.329396 7.827658 9.250869 14.232106 19.924948 19.924948 31.310632 5.692842 10.674079 11.385685 22.059764 17.078527 32.733843l2.134816 4.269632c54.082001 106.029187 106.740792 214.19319 155.770396 320.222377v0.711605c5.692842 11.385685 10.674079 24.19458 16.366921 35.580264 3.558026 8.539263 7.116053 15.655316 9.250869 22.771369 5.692842 18.501737 7.827658 36.291869 4.981237 54.793607z" fill="" /></svg>