<svg width="20" height="20" viewBox="0 0 20 20" fill="none" xmlns="http://www.w3.org/2000/svg">
<path d="M2.5 13.3333C2.5 15.6667 4.33333 17.5 6.66667 17.5H8.33333V15.8333H6.66667C5.25 15.8333 4.16667 14.75 4.16667 13.3333V11.6667H2.5V13.3333ZM17.5 6.66667C17.5 4.33333 15.6667 2.5 13.3333 2.5H11.6667V4.16667H13.3333C14.75 4.16667 15.8333 5.25 15.8333 6.66667V8.33333H17.5V6.66667ZM13.3333 17.5C15.6667 17.5 17.5 15.6667 17.5 13.3333V11.6667H15.8333V13.3333C15.8333 14.75 14.75 15.8333 13.3333 15.8333H11.6667V17.5H13.3333ZM6.66667 2.5C4.33333 2.5 2.5 4.33333 2.5 6.66667V8.33333H4.16667V6.66667C4.16667 5.25 5.25 4.16667 6.66667 4.16667H8.33333V2.5H6.66667Z" fill="black"/>
</svg>
