<svg width="20" height="20" viewBox="0 0 20 20" fill="none" xmlns="http://www.w3.org/2000/svg">
<path d="M15 16.25C15 16.913 14.7366 17.5489 14.2678 18.0178C13.7989 18.4866 13.163 18.75 12.5 18.75H3.75C3.08696 18.75 2.45107 18.4866 1.98223 18.0178C1.51339 17.5489 1.25 16.913 1.25 16.25V7.5C1.25 6.83696 1.51339 6.20107 1.98223 5.73223C2.45107 5.26339 3.08696 5 3.75 5V6.25C3.41848 6.25 3.10054 6.3817 2.86612 6.61612C2.6317 6.85054 2.5 7.16848 2.5 7.5V16.25C2.5 16.5815 2.6317 16.8995 2.86612 17.1339C3.10054 17.3683 3.41848 17.5 3.75 17.5H12.5C12.8315 17.5 13.1495 17.3683 13.3839 17.1339C13.6183 16.8995 13.75 16.5815 13.75 16.25H15Z" fill="black"/>
<path d="M7.5 2.5C7.16848 2.5 6.85054 2.6317 6.61612 2.86612C6.3817 3.10054 6.25 3.41848 6.25 3.75V12.5C6.25 12.8315 6.3817 13.1495 6.61612 13.3839C6.85054 13.6183 7.16848 13.75 7.5 13.75H16.25C16.5815 13.75 16.8995 13.6183 17.1339 13.3839C17.3683 13.1495 17.5 12.8315 17.5 12.5V3.75C17.5 3.41848 17.3683 3.10054 17.1339 2.86612C16.8995 2.6317 16.5815 2.5 16.25 2.5H7.5ZM7.5 1.25H16.25C16.913 1.25 17.5489 1.51339 18.0178 1.98223C18.4866 2.45107 18.75 3.08696 18.75 3.75V12.5C18.75 13.163 18.4866 13.7989 18.0178 14.2678C17.5489 14.7366 16.913 15 16.25 15H7.5C6.83696 15 6.20107 14.7366 5.73223 14.2678C5.26339 13.7989 5 13.163 5 12.5V3.75C5 3.08696 5.26339 2.45107 5.73223 1.98223C6.20107 1.51339 6.83696 1.25 7.5 1.25Z" fill="black"/>
</svg>
