<svg width="20" height="20" viewBox="0 0 20 20" fill="none" xmlns="http://www.w3.org/2000/svg">
<path d="M17.5 9.69727C17.8906 9.96419 18.2389 10.2669 18.5449 10.6055C18.8509 10.944 19.1146 11.3151 19.3359 11.7188C19.5573 12.1224 19.7201 12.5488 19.8242 12.998C19.9284 13.4473 19.987 13.9062 20 14.375C20 15.1497 19.8535 15.8789 19.5605 16.5625C19.2676 17.2461 18.8639 17.8418 18.3496 18.3496C17.8353 18.8574 17.2396 19.2578 16.5625 19.5508C15.8854 19.8438 15.1562 19.9935 14.375 20C13.7826 20 13.2096 19.9121 12.6562 19.7363C12.1029 19.5605 11.5951 19.3066 11.1328 18.9746C10.6706 18.6426 10.2604 18.2454 9.90234 17.7832C9.54427 17.321 9.26758 16.8099 9.07227 16.25H1.25V1.25H3.75V0H5V1.25H13.75V0H15V1.25H17.5V9.69727ZM2.5 2.5V5H16.25V2.5H15V3.75H13.75V2.5H5V3.75H3.75V2.5H2.5ZM8.7793 15C8.75977 14.7982 8.75 14.5898 8.75 14.375C8.75 13.6003 8.89648 12.8711 9.18945 12.1875C9.48242 11.5039 9.88607 10.9082 10.4004 10.4004C10.9147 9.89258 11.5104 9.49219 12.1875 9.19922C12.8646 8.90625 13.5938 8.75651 14.375 8.75C15.026 8.75 15.651 8.85742 16.25 9.07227V6.25H2.5V15H8.7793ZM14.375 18.75C14.9805 18.75 15.5469 18.6361 16.0742 18.4082C16.6016 18.1803 17.0638 17.8678 17.4609 17.4707C17.8581 17.0736 18.1706 16.6113 18.3984 16.084C18.6263 15.5566 18.7435 14.987 18.75 14.375C18.75 13.7695 18.6361 13.2031 18.4082 12.6758C18.1803 12.1484 17.8678 11.6862 17.4707 11.2891C17.0736 10.8919 16.6113 10.5794 16.084 10.3516C15.5566 10.1237 14.987 10.0065 14.375 10C13.7695 10 13.2031 10.1139 12.6758 10.3418C12.1484 10.5697 11.6862 10.8822 11.2891 11.2793C10.8919 11.6764 10.5794 12.1387 10.3516 12.666C10.1237 13.1934 10.0065 13.763 10 14.375C10 14.9805 10.1139 15.5469 10.3418 16.0742C10.5697 16.6016 10.8822 17.0638 11.2793 17.4609C11.6764 17.8581 12.1387 18.1706 12.666 18.3984C13.1934 18.6263 13.763 18.7435 14.375 18.75ZM15 13.75H16.875V15H13.75V11.25H15V13.75Z" fill="black"/>
</svg>
