<svg width="74" height="29" viewBox="0 0 74 29" fill="none" xmlns="http://www.w3.org/2000/svg">
<path d="M0 12L5 4.5V24.5H0V12Z" fill="#1E1E1E"/>
<rect x="7" y="0.5" width="5" height="28" fill="#1E1E1E" fill-opacity="0.7"/>
<path d="M14 4.5L19 11.5V24.5H14V4.5Z" fill="#1E1E1E" fill-opacity="0.4"/>
<path d="M29.92 9.22H34.82C36.7133 9.22 38.1067 9.57333 39 10.28C39.9067 10.9867 40.36 12.0667 40.36 13.52C40.36 14.4667 40.1467 15.2733 39.72 15.94C39.3067 16.6067 38.6733 17.12 37.82 17.48C36.9667 17.8267 35.9 18 34.62 18H33.12V22.5H29.92V9.22ZM34.56 15.86C35.2267 15.8467 35.7533 15.7533 36.14 15.58C36.5267 15.3933 36.8067 15.14 36.98 14.82C37.1533 14.4867 37.24 14.0533 37.24 13.52C37.24 12.7867 37.0333 12.26 36.62 11.94C36.2067 11.6067 35.5267 11.44 34.58 11.44H33.12V15.86H34.56ZM41.6178 9.08H44.6578V22.5H41.6178V9.08ZM49.2039 22.76C48.2039 22.76 47.4106 22.5133 46.8239 22.02C46.2372 21.5133 45.9439 20.8467 45.9439 20.02C45.9439 19.3533 46.0972 18.8267 46.4039 18.44C46.7239 18.0533 47.1372 17.76 47.6439 17.56C48.1506 17.36 48.8106 17.18 49.6239 17.02C49.8906 16.9667 50.1572 16.9133 50.4239 16.86C51.0906 16.74 51.5506 16.64 51.8039 16.56C52.0706 16.4667 52.2239 16.3333 52.2639 16.16V16.04C52.2639 15.7333 52.1372 15.4867 51.8839 15.3C51.6439 15.1133 51.2706 15.02 50.7639 15.02C50.2172 15.02 49.7972 15.1467 49.5039 15.4C49.2106 15.64 49.0639 15.9533 49.0639 16.34V16.48H46.1639C46.1906 15.3733 46.6106 14.4933 47.4239 13.84C48.2506 13.1867 49.3706 12.86 50.7839 12.86C52.2372 12.86 53.3372 13.1733 54.0839 13.8C54.8306 14.4133 55.2039 15.3933 55.2039 16.74V20.82V22.5H52.2439V21.2C51.9506 21.6933 51.5439 22.08 51.0239 22.36C50.5172 22.6267 49.9106 22.76 49.2039 22.76ZM50.1639 20.78C50.7239 20.78 51.2039 20.6267 51.6039 20.32C52.0039 20.0133 52.2239 19.5333 52.2639 18.88V17.92C52.0906 18.0133 51.8972 18.0933 51.6839 18.16C51.4839 18.2133 51.2172 18.28 50.8839 18.36C50.7506 18.3867 50.6239 18.4133 50.5039 18.44C49.9972 18.5867 49.6172 18.7533 49.3639 18.94C49.1106 19.1267 48.9839 19.4067 48.9839 19.78C48.9839 20.0733 49.0839 20.3133 49.2839 20.5C49.4972 20.6867 49.7906 20.78 50.1639 20.78ZM56.7541 13.06H59.7541V14.52C60.0207 13.9733 60.3874 13.5533 60.8541 13.26C61.3341 12.9667 61.9007 12.82 62.5541 12.82C63.5941 12.82 64.4007 13.1667 64.9741 13.86C65.5607 14.54 65.8541 15.52 65.8541 16.8V22.5H62.8141V17.02C62.8141 16.42 62.6941 15.9733 62.4541 15.68C62.2274 15.3867 61.8741 15.24 61.3941 15.24C60.8741 15.24 60.4674 15.44 60.1741 15.84C59.8941 16.24 59.7541 16.8133 59.7541 17.56V22.5H56.7541V13.06ZM67.3595 13.06H70.3795V14.74C70.5395 14.18 70.8262 13.7467 71.2395 13.44C71.6662 13.1333 72.2729 12.98 73.0595 12.98H73.2795V15.74H72.1795C71.4862 15.74 71.0129 15.9 70.7595 16.22C70.5062 16.5267 70.3795 17.0467 70.3795 17.78V22.5H67.3595V13.06Z" fill="black"/>
</svg>
