<svg width="40" height="40" viewBox="0 0 40 40" fill="none" xmlns="http://www.w3.org/2000/svg">
<g clip-path="url(#clip0_185_71)">
<path d="M32.7582 23.77C33.2259 23.7711 33.6859 23.8067 34.1382 23.8767C34.1382 23.885 34.1298 23.8933 34.1298 23.9C33.9503 24.3515 33.738 24.7893 33.4948 25.21L31.4632 28.72C30.5509 30.3049 29.2368 31.6212 27.6535 32.5362C26.0701 33.4512 24.2735 33.9325 22.4448 33.9317H18.3915C16.5628 33.9311 14.7666 33.4492 13.1832 32.5344C11.5999 31.6195 10.2852 30.304 9.3715 28.72L7.3415 25.21C6.42662 23.6261 5.94497 21.8292 5.94497 20C5.94497 18.1708 6.42662 16.3739 7.3415 14.79L9.3715 11.28C10.2839 9.69487 11.5983 8.3784 13.1819 7.46338C14.7656 6.54837 16.5625 6.06717 18.3915 6.06833H22.4448C24.2732 6.06916 26.0691 6.55121 27.6522 7.46604C29.2352 8.38087 30.5496 9.69625 31.4632 11.28L33.4948 14.79C33.7398 15.21 33.9465 15.655 34.1298 16.1C34.1298 16.1067 34.1382 16.115 34.1382 16.1233C33.6815 16.1936 33.2202 16.2293 32.7582 16.23C29.7315 16.23 28.5898 15.2183 27.2732 14.0533C25.9998 12.9267 24.4215 11.525 21.5398 11.525H19.8248C17.7398 11.525 15.8465 12.2833 14.4915 13.655C13.1648 14.9967 12.4365 16.8283 12.4365 18.82V21.1717C12.4365 23.165 13.1648 24.9967 14.4915 26.3367C15.8465 27.7083 17.7398 28.4667 19.8248 28.4667H21.5482C24.4298 28.4667 26.0082 27.065 27.2798 25.9383C28.5982 24.7667 29.7315 23.7617 32.7582 23.77ZM32.7665 18.375C33.4332 18.375 34.0882 18.3139 34.7315 18.1917C34.7282 18.1839 34.727 18.1761 34.7282 18.1683C34.603 17.4738 34.4081 16.7937 34.1465 16.1383C35.3421 15.951 36.4764 15.4832 37.4565 14.7733C37.4565 14.7667 37.4482 14.7517 37.4482 14.7433C36.896 12.9382 36.0582 11.2333 34.9665 9.69333C33.8844 8.17098 32.574 6.8246 31.0815 5.70167C27.994 3.37843 24.2321 2.12721 20.3682 2.13833C17.9548 2.13833 15.6098 2.605 13.4098 3.54C11.2882 4.445 9.3715 5.73167 7.7315 7.37167C6.0915 9.01167 4.7965 10.92 3.9015 13.05C2.97216 15.252 2.49493 17.6183 2.49816 20.0083C2.49816 22.4217 2.9665 24.7667 3.9015 26.965C4.80483 29.0883 6.0915 31.0033 7.7315 32.6433C9.3715 34.2833 11.2798 35.5783 13.4098 36.475C15.6165 37.4017 17.9548 37.8767 20.3682 37.8767C24.2682 37.8767 27.9698 36.6433 31.0815 34.315C32.5759 33.1936 33.8866 31.8463 34.9665 30.3217C36.0533 28.7788 36.8908 27.0747 37.4482 25.2717C37.4482 25.265 37.4565 25.2483 37.4565 25.2417C36.4764 24.5318 35.3421 24.064 34.1465 23.8767C34.4148 23.2183 34.6065 22.5367 34.7282 21.8467C34.7365 21.8317 34.7365 21.8233 34.7365 21.8083C36.1852 22.0734 37.555 22.6631 38.7432 23.5333C39.8848 24.375 39.6632 25.325 39.4865 25.8933C36.9732 34.0617 29.3648 40 20.3682 40C9.3265 40 0.368164 31.0417 0.368164 20C0.368164 8.95833 9.31816 0 20.3682 0C29.3648 0 36.9732 5.93833 39.4865 14.1067C39.6632 14.675 39.8848 15.6317 38.7432 16.475C37.5563 17.3472 36.1859 17.9366 34.7365 18.1983C34.9498 19.3917 34.9498 20.615 34.7365 21.8083C34.0871 21.6854 33.4275 21.624 32.7665 21.625C25.7932 21.625 26.1532 26.33 21.5398 26.33H19.8248C16.6598 26.33 14.5748 24.0683 14.5748 21.1717V18.82C14.5748 15.9233 16.6598 13.6633 19.8248 13.6633H21.5482C26.1615 13.6633 25.8015 18.3683 32.7665 18.375Z" fill="black" fill-opacity="0.6"/>
</g>
<defs>
<clipPath id="clip0_185_71">
<rect width="40" height="40" fill="white"/>
</clipPath>
</defs>
</svg>
