<svg width="14" height="13" viewBox="0 0 14 13" fill="none" xmlns="http://www.w3.org/2000/svg">
<path d="M8.875 2.28125C9.41372 2.28125 9.93038 2.06724 10.3113 1.68631C10.6922 1.30538 10.9062 0.788721 10.9062 0.25H11.8438C11.8438 0.788721 12.0578 1.30538 12.4387 1.68631C12.8196 2.06724 13.3363 2.28125 13.875 2.28125V3.21875C13.3363 3.21875 12.8196 3.43276 12.4387 3.81369C12.0578 4.19462 11.8438 4.71128 11.8438 5.25H10.9062C10.9062 4.71128 10.6922 4.19462 10.3113 3.81369C9.93038 3.43276 9.41372 3.21875 8.875 3.21875V2.28125ZM2 3.375C2 3.04348 2.1317 2.72554 2.36612 2.49112C2.60054 2.2567 2.91848 2.125 3.25 2.125H7.625V0.875H3.25C2.58696 0.875 1.95107 1.13839 1.48223 1.60723C1.01339 2.07607 0.75 2.71196 0.75 3.375V9.625C0.75 10.288 1.01339 10.9239 1.48223 11.3928C1.95107 11.8616 2.58696 12.125 3.25 12.125H10.75C11.413 12.125 12.0489 11.8616 12.5178 11.3928C12.9866 10.9239 13.25 10.288 13.25 9.625V6.5H12V9.625C12 9.95652 11.8683 10.2745 11.6339 10.5089C11.3995 10.7433 11.0815 10.875 10.75 10.875H3.25C2.91848 10.875 2.60054 10.7433 2.36612 10.5089C2.1317 10.2745 2 9.95652 2 9.625V3.375Z" fill="white"/>
</svg>