<svg width="14" height="7" viewBox="0 0 14 7" fill="none" xmlns="http://www.w3.org/2000/svg">
<path d="M11.6875 1.625C10.8166 1.625 10.0891 2.225 9.87906 3.03125H8.60031C8.35 3.03125 8.11469 3.12875 7.9375 3.30594L5.39969 5.84375H0.4375V6.78125H5.39969C5.65 6.78125 5.88531 6.68375 6.0625 6.50656L8.60031 3.96875H9.87906C10.0886 4.775 10.8166 5.375 11.6875 5.375C12.7216 5.375 13.5625 4.53406 13.5625 3.5C13.5625 2.46594 12.7216 1.625 11.6875 1.625ZM11.6875 4.4375C11.1705 4.4375 10.75 4.01703 10.75 3.5C10.75 2.98297 11.1705 2.5625 11.6875 2.5625C12.2045 2.5625 12.625 2.98344 12.625 3.5C12.625 4.01656 12.2045 4.4375 11.6875 4.4375ZM7.08063 2.83719L5.39969 1.15625H0.4375V0.21875H5.39969C5.65 0.21875 5.88531 0.31625 6.0625 0.493438L7.74344 2.17437L7.08063 2.83719Z" fill="white"/>
</svg>