
<svg width="20" height="20" viewBox="0 0 20 20" fill="none" xmlns="http://www.w3.org/2000/svg">
<path d="M17.5006 14.1663V6.66634H5.83398V14.1663H17.5006ZM17.5006 2.49967C17.9427 2.49967 18.3666 2.67527 18.6792 2.98783C18.9917 3.30039 19.1673 3.72431 19.1673 4.16634V14.1663C19.1673 14.6084 18.9917 15.0323 18.6792 15.3449C18.3666 15.6574 17.9427 15.833 17.5006 15.833H5.83398C5.39196 15.833 4.96803 15.6574 4.65547 15.3449C4.34291 15.0323 4.16732 14.6084 4.16732 14.1663V4.16634C4.16732 3.72431 4.34291 3.30039 4.65547 2.98783C4.96803 2.67527 5.39196 2.49967 5.83398 2.49967H6.66732V0.833008H8.33398V2.49967H15.0006V0.833008H16.6673V2.49967H17.5006ZM14.609 9.21634L10.909 12.9163L8.67565 10.683L9.55898 9.79967L10.909 11.1497L13.7256 8.33301L14.609 9.21634ZM2.50065 17.4997H14.1673V19.1663H2.50065C2.05862 19.1663 1.6347 18.9907 1.32214 18.6782C1.00958 18.3656 0.833984 17.9417 0.833984 17.4997V7.49967H2.50065V17.4997Z" fill="white"/>
</svg>
