<svg width="15" height="15" viewBox="0 0 15 15" fill="none" xmlns="http://www.w3.org/2000/svg">
<path d="M3.75 2.5C3.75 2.83152 3.6183 3.14946 3.38388 3.38388C3.14946 3.6183 2.83152 3.75 2.5 3.75C2.16848 3.75 1.85054 3.6183 1.61612 3.38388C1.3817 3.14946 1.25 2.83152 1.25 2.5C1.25 2.16848 1.3817 1.85054 1.61612 1.61612C1.85054 1.3817 2.16848 1.25 2.5 1.25C2.83152 1.25 3.14946 1.3817 3.38388 1.61612C3.6183 1.85054 3.75 2.16848 3.75 2.5ZM13.75 2.5C13.75 2.83152 13.6183 3.14946 13.3839 3.38388C13.1495 3.6183 12.8315 3.75 12.5 3.75C12.1685 3.75 11.8505 3.6183 11.6161 3.38388C11.3817 3.14946 11.25 2.83152 11.25 2.5C11.25 2.16848 11.3817 1.85054 11.6161 1.61612C11.8505 1.3817 12.1685 1.25 12.5 1.25C12.8315 1.25 13.1495 1.3817 13.3839 1.61612C13.6183 1.85054 13.75 2.16848 13.75 2.5ZM13.75 12.5C13.75 12.8315 13.6183 13.1495 13.3839 13.3839C13.1495 13.6183 12.8315 13.75 12.5 13.75C12.1685 13.75 11.8505 13.6183 11.6161 13.3839C11.3817 13.1495 11.25 12.8315 11.25 12.5C11.25 12.1685 11.3817 11.8505 11.6161 11.6161C11.8505 11.3817 12.1685 11.25 12.5 11.25C12.8315 11.25 13.1495 11.3817 13.3839 11.6161C13.6183 11.8505 13.75 12.1685 13.75 12.5ZM3.75 12.5C3.75 12.8315 3.6183 13.1495 3.38388 13.3839C3.14946 13.6183 2.83152 13.75 2.5 13.75C2.16848 13.75 1.85054 13.6183 1.61612 13.3839C1.3817 13.1495 1.25 12.8315 1.25 12.5C1.25 12.1685 1.3817 11.8505 1.61612 11.6161C1.85054 11.3817 2.16848 11.25 2.5 11.25C2.83152 11.25 3.14946 11.3817 3.38388 11.6161C3.6183 11.8505 3.75 12.1685 3.75 12.5ZM10.3125 5.625C10.3125 5.33375 10.3125 5.18812 10.265 5.07312C10.2014 4.92029 10.0798 4.79891 9.92688 4.73563C9.81188 4.6875 9.66625 4.6875 9.375 4.6875H5.625C5.33375 4.6875 5.18812 4.6875 5.07312 4.735C4.92029 4.79857 4.79891 4.92017 4.73563 5.07312C4.6875 5.18812 4.6875 5.33375 4.6875 5.625C4.6875 5.91625 4.6875 6.06188 4.735 6.17688C4.79857 6.32971 4.92017 6.45109 5.07312 6.51438C5.18812 6.5625 5.33375 6.5625 5.625 6.5625H9.375C9.66625 6.5625 9.81188 6.5625 9.92688 6.515C10.0797 6.45143 10.2011 6.32983 10.2644 6.17688C10.3125 6.06188 10.3125 5.91625 10.3125 5.625ZM10.3125 9.375C10.3125 9.08375 10.3125 8.93812 10.265 8.82312C10.2014 8.67029 10.0798 8.54891 9.92688 8.48562C9.81188 8.4375 9.66625 8.4375 9.375 8.4375H5.625C5.33375 8.4375 5.18812 8.4375 5.07312 8.485C4.92029 8.54857 4.79891 8.67017 4.73563 8.82312C4.6875 8.93812 4.6875 9.08375 4.6875 9.375C4.6875 9.66625 4.6875 9.81188 4.735 9.92688C4.79857 10.0797 4.92017 10.2011 5.07312 10.2644C5.18812 10.3125 5.33375 10.3125 5.625 10.3125H9.375C9.66625 10.3125 9.81188 10.3125 9.92688 10.265C10.0797 10.2014 10.2011 10.0798 10.2644 9.92688C10.3125 9.81188 10.3125 9.66625 10.3125 9.375Z" stroke="white" stroke-width="0.9375" stroke-linecap="round" stroke-linejoin="round"/>
</svg>