<svg width="13" height="13" viewBox="0 0 13 13" fill="none" xmlns="http://www.w3.org/2000/svg">
<path d="M8.37421 1.5H8.99921C9.16497 1.5 9.32394 1.56585 9.44115 1.68306C9.55836 1.80027 9.62421 1.95924 9.62421 2.125V4.3125M11.4992 2.75C11.6642 2.82 11.8242 2.88563 11.9792 2.94688C12.1318 3.01162 12.2524 3.13431 12.3145 3.28797C12.3766 3.44163 12.3752 3.61367 12.3105 3.76625L10.8742 7.125M1.25171 3.49813L5.71296 1.555C5.78657 1.52345 5.86576 1.50695 5.94585 1.50649C6.02594 1.50602 6.10532 1.5216 6.17929 1.5523C6.25327 1.58299 6.32035 1.62819 6.37658 1.68522C6.43282 1.74226 6.47706 1.80997 6.50671 1.88437L9.58421 9.32313C9.64818 9.47397 9.65035 9.6439 9.59027 9.79633C9.53018 9.94876 9.41265 10.0715 9.26296 10.1381L4.80233 12.0813C4.72869 12.1129 4.64944 12.1295 4.56928 12.13C4.48912 12.1305 4.40967 12.1149 4.33562 12.0842C4.26157 12.0535 4.19442 12.0083 4.13815 11.9512C4.08187 11.8941 4.0376 11.8264 4.00796 11.7519L0.930459 4.3125C0.866492 4.16166 0.864316 3.99173 0.9244 3.8393C0.984484 3.68687 1.10202 3.56475 1.25171 3.49813Z" stroke="white" stroke-width="1.25" stroke-linecap="round" stroke-linejoin="round"/>
</svg>