<svg width="13" height="7" viewBox="0 0 13 7" fill="none" xmlns="http://www.w3.org/2000/svg">
<path d="M2.75 4.125H10.25C10.5938 4.125 10.875 3.84375 10.875 3.5C10.875 3.15625 10.5938 2.875 10.25 2.875H2.75C2.40625 2.875 2.125 3.15625 2.125 3.5C2.125 3.84375 2.40625 4.125 2.75 4.125ZM1.5 6.625H9C9.34375 6.625 9.625 6.34375 9.625 6C9.625 5.65625 9.34375 5.375 9 5.375H1.5C1.15625 5.375 0.875 5.65625 0.875 6C0.875 6.34375 1.15625 6.625 1.5 6.625ZM3.375 1C3.375 1.34375 3.65625 1.625 4 1.625H11.5C11.8438 1.625 12.125 1.34375 12.125 1C12.125 0.65625 11.8438 0.375 11.5 0.375H4C3.65625 0.375 3.375 0.65625 3.375 1Z" fill="white"/>
</svg>