
<svg width="20" height="20" viewBox="0 0 20 20" fill="none" xmlns="http://www.w3.org/2000/svg">
<path d="M10.0173 9.18294C11.8762 9.18294 13.4518 8.89905 14.744 8.33128C16.0368 7.76405 16.6832 7.07544 16.6832 6.26544C16.6832 5.45544 16.0368 4.76683 14.744 4.19961C13.4512 3.63239 11.8757 3.34905 10.0173 3.34961C8.15898 3.35017 6.58037 3.6335 5.28148 4.19961C3.9826 4.76572 3.33343 5.45461 3.33398 6.26628C3.33454 7.07794 3.98371 7.76628 5.28148 8.33128C6.57926 8.89628 8.1576 9.17989 10.0165 9.18211M10.0007 10.4646C10.6768 10.4646 11.3645 10.4107 12.064 10.3029C12.7634 10.1957 13.4207 10.0368 14.0357 9.82628C14.6507 9.61572 15.1923 9.35489 15.6607 9.04378C16.129 8.73267 16.4698 8.37294 16.6832 7.96461V10.4321C16.4698 10.8404 16.129 11.2002 15.6607 11.5113C15.1929 11.8229 14.6512 12.0841 14.0357 12.2946C13.4207 12.5052 12.7634 12.6641 12.064 12.7713C11.3645 12.8785 10.6768 12.9321 10.0007 12.9321C9.32454 12.9321 8.63676 12.8785 7.93732 12.7713C7.23787 12.6641 6.58315 12.5052 5.97315 12.2946C5.36315 12.0841 4.82426 11.8229 4.35648 11.5113C3.88871 11.1996 3.54787 10.8402 3.33398 10.4329V7.96461C3.54732 8.37239 3.88815 8.73211 4.35648 9.04378C4.82426 9.35489 5.36315 9.616 5.97315 9.82711C6.58315 10.0371 7.23787 10.196 7.93732 10.3038C8.63676 10.4116 9.32454 10.4652 10.0007 10.4646ZM10.0007 14.2146C10.6768 14.2146 11.3645 14.161 12.064 14.0538C12.7629 13.946 13.4201 13.7868 14.0357 13.5763C14.6512 13.3657 15.1929 13.1049 15.6607 12.7938C16.1284 12.4827 16.4693 12.1229 16.6832 11.7146V14.1663C16.4698 14.5746 16.129 14.9343 15.6607 15.2454C15.1929 15.5566 14.6512 15.8177 14.0357 16.0288C13.4207 16.2393 12.7634 16.3982 12.064 16.5054C11.3645 16.6127 10.6768 16.6663 10.0007 16.6663C9.32454 16.6663 8.63676 16.6127 7.93732 16.5054C7.23787 16.3982 6.58315 16.2393 5.97315 16.0288C5.36315 15.8182 4.82426 15.5571 4.35648 15.2454C3.88871 14.9338 3.54787 14.5741 3.33398 14.1663V11.7146C3.54787 12.1224 3.88871 12.4821 4.35648 12.7938C4.82426 13.1054 5.36315 13.3666 5.97315 13.5771C6.58315 13.7877 7.23787 13.9466 7.93732 14.0538C8.63676 14.161 9.32454 14.2146 10.0007 14.2146Z" fill="white"/>
</svg>
