<svg
	width="10"
	height="18"
	viewBox="0 0 10 18"
	fill="none"
	xmlns="http://www.w3.org/2000/svg"
>
	<path
		fill-rule="evenodd"
		clip-rule="evenodd"
		d="M2.49967 15.667H4.16634V10.667C3.28229 10.667 2.43444 10.3158 1.80932 9.69068C1.1842 9.06556 0.833008 8.21771 0.833008 7.33366V2.33366C0.833008 1.89163 1.0086 1.46771 1.32116 1.15515C1.63372 0.842587 2.05765 0.666992 2.49967 0.666992H7.49967C7.9417 0.666992 8.36562 0.842587 8.67819 1.15515C8.99075 1.46771 9.16634 1.89163 9.16634 2.33366V7.33366C9.16634 8.21771 8.81515 9.06556 8.19003 9.69068C7.56491 10.3158 6.71706 10.667 5.83301 10.667V15.667H7.49967C7.72069 15.667 7.93265 15.7548 8.08893 15.9111C8.24521 16.0673 8.33301 16.2793 8.33301 16.5003C8.33301 16.7213 8.24521 16.9333 8.08893 17.0896C7.93265 17.2459 7.72069 17.3337 7.49967 17.3337H2.49967C2.27866 17.3337 2.0667 17.2459 1.91042 17.0896C1.75414 16.9333 1.66634 16.7213 1.66634 16.5003C1.66634 16.2793 1.75414 16.0673 1.91042 15.9111C2.0667 15.7548 2.27866 15.667 2.49967 15.667ZM2.49967 2.33366V7.33366C2.49967 7.77569 2.67527 8.19961 2.98783 8.51217C3.30039 8.82473 3.72431 9.00033 4.16634 9.00033H5.83301C6.27504 9.00033 6.69896 8.82473 7.01152 8.51217C7.32408 8.19961 7.49967 7.77569 7.49967 7.33366V2.33366H2.49967Z"
		fill="black"
	/>
</svg>
