<svg width="12" height="9" viewBox="0 0 12 9" fill="none" xmlns="http://www.w3.org/2000/svg">
<path d="M2.57813 8.875C2.04688 8.875 1.60417 8.69792 1.25 8.34375C0.895833 7.98958 0.71875 7.54688 0.71875 7.01562C0.71875 6.48437 0.895833 6.03917 1.25 5.68C1.60417 5.32083 2.04688 5.14104 2.57813 5.14062C3.10938 5.14021 3.55208 5.31729 3.90625 5.67188C4.26042 6.02646 4.4375 6.46917 4.4375 7C4.4375 7.53083 4.26042 7.97604 3.90625 8.33562C3.55208 8.69521 3.10938 8.875 2.57813 8.875ZM1.29688 3.85938C1.18229 3.85938 1.08604 3.82292 1.00813 3.75C0.930208 3.67708 0.891042 3.58333 0.890625 3.46875V0.515625C0.890625 0.401042 0.929792 0.307292 1.00813 0.234375C1.08646 0.161458 1.18271 0.125 1.29688 0.125C1.41104 0.125 1.50479 0.161458 1.57813 0.234375C1.65146 0.307292 1.68792 0.401042 1.6875 0.515625V3.46875C1.6875 3.58333 1.65104 3.67708 1.57813 3.75C1.50521 3.82292 1.41146 3.85938 1.29688 3.85938ZM2.57813 8.15625C2.90104 8.15625 3.16667 8.04688 3.375 7.82813C3.58333 7.60938 3.6875 7.33333 3.6875 7C3.6875 6.66667 3.58583 6.39333 3.3825 6.18C3.17917 5.96667 2.91104 5.85979 2.57813 5.85938C2.25521 5.85938 1.98958 5.96625 1.78125 6.18C1.57292 6.39375 1.46875 6.66708 1.46875 7C1.46875 7.33292 1.57292 7.60896 1.78125 7.82813C1.98958 8.04729 2.25521 8.15667 2.57813 8.15625ZM2.79688 3.85938C2.68229 3.85938 2.58854 3.82292 2.51563 3.75C2.44271 3.67708 2.40625 3.58333 2.40625 3.46875V0.5C2.40625 0.395833 2.44271 0.307292 2.51563 0.234375C2.58854 0.161458 2.67708 0.125 2.78125 0.125H3.0625C3.13542 0.125 3.20062 0.143333 3.25812 0.18C3.31562 0.216667 3.35979 0.260833 3.39062 0.3125L4.6875 2.5L4.65625 1.90625V0.515625C4.65625 0.401042 4.69271 0.307292 4.76562 0.234375C4.83854 0.161458 4.93229 0.125 5.04688 0.125C5.16146 0.125 5.25521 0.161458 5.32812 0.234375C5.40104 0.307292 5.4375 0.401042 5.4375 0.515625V3.51562C5.4375 3.60938 5.40375 3.69021 5.33625 3.75812C5.26875 3.82604 5.18792 3.85979 5.09375 3.85938H4.82812C4.76562 3.85938 4.71104 3.84375 4.66437 3.8125C4.61771 3.78125 4.57854 3.73958 4.54688 3.6875L3.14063 1.34375L3.1875 1.9375V3.46875C3.1875 3.58333 3.15104 3.67708 3.07812 3.75C3.00521 3.82292 2.91146 3.85938 2.79688 3.85938ZM6.5 8.875C6.0625 8.875 5.71354 8.73438 5.45312 8.45312C5.19271 8.17188 5.0625 7.79688 5.0625 7.32812V5.51562C5.0625 5.41146 5.09896 5.32292 5.17188 5.25C5.24479 5.17708 5.33854 5.14062 5.45312 5.14062C5.56771 5.14062 5.65896 5.17438 5.72687 5.24188C5.79479 5.30938 5.82854 5.40063 5.82812 5.51562V7.375C5.82812 7.59375 5.89333 7.77604 6.02375 7.92188C6.15417 8.06771 6.31292 8.14062 6.5 8.14062C6.68708 8.14062 6.84333 8.06771 6.96875 7.92188C7.09417 7.77604 7.15667 7.59375 7.15625 7.375V5.51562C7.15625 5.41146 7.19271 5.32292 7.26562 5.25C7.33854 5.17708 7.43229 5.14062 7.54688 5.14062C7.66146 5.14062 7.75271 5.17438 7.82062 5.24188C7.88854 5.30938 7.92229 5.40063 7.92188 5.51562V7.32812C7.92188 7.79688 7.79167 8.17188 7.53125 8.45312C7.27083 8.73438 6.92708 8.875 6.5 8.875ZM9.92188 8.875C9.80729 8.875 9.71354 8.83854 9.64062 8.76562C9.56771 8.69271 9.53125 8.59896 9.53125 8.48438V5.875H8.89062C8.78646 5.875 8.70062 5.83854 8.63312 5.76562C8.56562 5.69271 8.53167 5.60417 8.53125 5.5C8.53083 5.39583 8.56479 5.30979 8.63312 5.24188C8.70146 5.17396 8.78729 5.14021 8.89062 5.14062H10.9219C11.026 5.14062 11.1121 5.17458 11.18 5.2425C11.2479 5.31042 11.2817 5.39625 11.2813 5.5C11.2808 5.60375 11.2471 5.69229 11.18 5.76562C11.1129 5.83896 11.0269 5.87542 10.9219 5.875H10.2969V8.5C10.2969 8.60417 10.2631 8.69271 10.1956 8.76562C10.1281 8.83854 10.0369 8.875 9.92188 8.875Z" fill="white"/>
</svg>