
<svg width="20" height="20" viewBox="0 0 20 20" fill="none" xmlns="http://www.w3.org/2000/svg">
<g clip-path="url(#clip0_531_159)">
<path d="M3.88845 3.33377H12.7773V8.77821H13.8885V3.33377C13.8885 3.03908 13.7714 2.75647 13.563 2.54809C13.3546 2.33972 13.072 2.22266 12.7773 2.22266H3.88845C3.59377 2.22266 3.31115 2.33972 3.10278 2.54809C2.89441 2.75647 2.77734 3.03908 2.77734 3.33377V16.6671C2.77734 16.9618 2.89441 17.2444 3.10278 17.4528C3.31115 17.6611 3.59377 17.7782 3.88845 17.7782H12.7773C13.072 17.7782 13.3546 17.6611 13.563 17.4528C13.7714 17.2444 13.8885 16.9618 13.8885 16.6671H3.88845V3.33377Z" fill="white"/>
<path d="M15.6436 9.60038C15.5373 9.50937 15.4006 9.46181 15.2608 9.46721C15.121 9.47261 14.9884 9.53057 14.8894 9.62952C14.7905 9.72846 14.7325 9.86109 14.7271 10.0009C14.7217 10.1407 14.7693 10.2774 14.8603 10.3837L16.7381 12.2226H8.68251C8.53517 12.2226 8.39386 12.2811 8.28967 12.3853C8.18548 12.4895 8.12695 12.6308 8.12695 12.7782C8.12695 12.9255 8.18548 13.0668 8.28967 13.171C8.39386 13.2752 8.53517 13.3337 8.68251 13.3337H16.7381L14.8603 15.2559C14.8021 15.3057 14.7549 15.367 14.7216 15.436C14.6882 15.5049 14.6695 15.58 14.6665 15.6565C14.6636 15.733 14.6764 15.8093 14.7044 15.8806C14.7323 15.9519 14.7747 16.0166 14.8288 16.0707C14.883 16.1249 14.9477 16.1673 15.019 16.1952C15.0903 16.2231 15.1666 16.236 15.2431 16.233C15.3196 16.2301 15.3947 16.2114 15.4636 16.178C15.5325 16.1447 15.5938 16.0974 15.6436 16.0393L18.8881 12.8171L15.6436 9.60038Z" fill="white"/>
</g>
<defs>
<clipPath id="clip0_531_159">
<rect width="20" height="20" fill="white"/>
</clipPath>
</defs>
</svg>
