
<svg width="20" height="20" viewBox="0 0 20 20" fill="none" xmlns="http://www.w3.org/2000/svg">
<path d="M7.69641 2.83105L6.54391 3.2998L7.26578 5.0973C6.35732 5.60721 5.60693 6.35759 5.09703 7.26605L3.30078 6.54293L2.83203 7.69418L4.61016 8.4173C4.45704 8.93094 4.37811 9.46383 4.37578 9.9998C4.37823 10.5354 4.45715 11.0678 4.61016 11.5811L2.83203 12.3048L3.30078 13.4573L5.09828 12.7354C5.60998 13.6425 6.35993 14.3925 7.26703 14.9042L6.54391 16.7004L7.69516 17.1692L8.41828 15.3911C8.91828 15.5386 9.45141 15.6254 9.99953 15.6254C10.5351 15.623 11.0675 15.5441 11.5808 15.3911L12.3039 17.1686L13.4564 16.6998L12.7345 14.9023C13.643 14.3924 14.3934 13.642 14.9033 12.7336L16.6995 13.4567L17.1683 12.3048L15.3902 11.5823C15.5432 11.0691 15.6221 10.5366 15.6245 10.0011C15.6221 9.4655 15.5432 8.93304 15.3902 8.4198L17.1677 7.69605L16.6989 6.54418L14.9014 7.26605C14.3915 6.35759 13.6411 5.60721 12.7327 5.0973L13.4558 3.30105L12.3039 2.8323L11.5814 4.61043C11.0684 4.45706 10.5362 4.37772 10.0008 4.3748C9.46523 4.37726 8.93277 4.45618 8.41953 4.60918L7.69453 2.83105H7.69641ZM10.0008 5.6248C12.4245 5.6248 14.3758 7.57605 14.3758 9.9998C14.3758 12.4236 12.4245 14.3748 10.0008 14.3748C7.57703 14.3748 5.62578 12.4236 5.62578 9.9998C5.62578 7.57605 7.57703 5.6248 10.0008 5.6248ZM10.0008 7.4998C8.62766 7.4998 7.50078 8.62668 7.50078 9.9998C7.50078 11.3729 8.62766 12.4998 10.0008 12.4998C11.3739 12.4998 12.5008 11.3729 12.5008 9.9998C12.5008 8.62668 11.3739 7.4998 10.0008 7.4998ZM10.0008 8.7498C10.6983 8.7498 11.2508 9.3023 11.2508 9.9998C11.2508 10.6973 10.6983 11.2498 10.0008 11.2498C9.30328 11.2498 8.75078 10.6973 8.75078 9.9998C8.75078 9.3023 9.30328 8.7498 10.0008 8.7498Z" fill="white"/>
</svg>
